<svg width="33" height="29" viewBox="0 0 33 29" fill="none" xmlns="http://www.w3.org/2000/svg">
<g clip-path="url(#clip0_3_58)">
<rect x="5.02754" y="8.05615" width="2.46002" height="2.46002" rx="0.559094" transform="rotate(-10 5.02754 8.05615)" fill="currentColor"/>
<rect x="5.74597" y="12.1306" width="2.46002" height="2.46002" rx="0.559094" transform="rotate(-10 5.74597 12.1306)" fill="currentColor"/>
<rect x="6.46442" y="16.2051" width="2.46002" height="2.46002" rx="0.559094" transform="rotate(-10 6.46442 16.2051)" fill="currentColor"/>
<rect x="7.18285" y="20.2794" width="2.46002" height="2.46002" rx="0.559094" transform="rotate(-10 7.18285 20.2794)" fill="currentColor"/>
<path d="M19.7484 11.8584C20.7191 12.2116 20.9433 13.4832 20.152 14.1472L15.9978 17.6329C15.2065 18.2969 13.9932 17.8553 13.8138 16.8381L12.8722 11.4975C12.6928 10.4803 13.6819 9.65032 14.6525 10.0036L19.7484 11.8584Z" fill="currentColor"/>
<rect x="22.3742" y="4.99744" width="2.46002" height="2.46002" rx="0.559094" transform="rotate(-10 22.3742 4.99744)" fill="currentColor"/>
<rect x="23.0927" y="9.0719" width="2.46002" height="2.46002" rx="0.559094" transform="rotate(-10 23.0927 9.0719)" fill="currentColor"/>
<rect x="23.8111" y="13.1464" width="2.46002" height="2.46002" rx="0.559094" transform="rotate(-10 23.8111 13.1464)" fill="currentColor"/>
<rect x="24.5295" y="17.2208" width="2.46002" height="2.46002" rx="0.559094" transform="rotate(-10 24.5295 17.2208)" fill="currentColor"/>
<rect x="1.5363" y="5.96464" width="26.6688" height="21.0219" rx="3.96957" transform="rotate(-10 1.5363 5.96464)" stroke="currentColor" stroke-width="1.7891"/>
</g>
<defs>
<clipPath id="clip0_3_58">
<rect width="32" height="28.4054" fill="white" transform="translate(0.5 0.297363)"/>
</clipPath>
</defs>
</svg>
