<svg width="33" height="29" viewBox="0 0 33 29" fill="none" xmlns="http://www.w3.org/2000/svg">
<mask id="mask0_104_75" style="mask-type:luminance" maskUnits="userSpaceOnUse" x="0" y="0" width="33" height="29">
<path d="M32.5 0.297363H0.5V28.7028H32.5V0.297363Z" fill="white"/>
</mask>
<g mask="url(#mask0_104_75)">
<path d="M6.89951 7.72606L5.57807 7.95907C5.27398 8.01269 5.07093 8.30266 5.12455 8.60675L5.35756 9.9282C5.41118 10.2323 5.70116 10.4353 6.00524 10.3817L7.32669 10.1487C7.63078 10.0951 7.83382 9.80511 7.7802 9.50102L7.5472 8.17957C7.49358 7.87549 7.2036 7.67244 6.89951 7.72606Z" fill="black"/>
<path d="M7.61802 11.8005L6.29657 12.0335C5.99248 12.0871 5.78944 12.3771 5.84306 12.6812L6.07606 14.0027C6.12968 14.3067 6.41966 14.5098 6.72375 14.4562L8.0452 14.2232C8.34928 14.1696 8.55233 13.8796 8.49871 13.5755L8.2657 12.254C8.21209 11.9499 7.92211 11.7469 7.61802 11.8005Z" fill="black"/>
<path d="M8.3364 15.875L7.01496 16.108C6.71087 16.1616 6.50782 16.4516 6.56144 16.7557L6.79445 18.0771C6.84807 18.3812 7.13805 18.5843 7.44213 18.5306L8.76358 18.2976C9.06767 18.244 9.27071 17.954 9.2171 17.6499L8.98409 16.3285C8.93047 16.0244 8.64049 15.8214 8.3364 15.875Z" fill="black"/>
<path d="M9.05491 19.9494L7.73346 20.1825C7.42937 20.2361 7.22633 20.5261 7.27995 20.8301L7.51295 22.1516C7.56657 22.4557 7.85655 22.6587 8.16064 22.6051L9.48209 22.3721C9.78617 22.3185 9.98922 22.0285 9.9356 21.7244L9.70259 20.403C9.64897 20.0989 9.359 19.8958 9.05491 19.9494Z" fill="black"/>
<path d="M19.7484 11.8585C20.7191 12.2117 20.9433 13.4833 20.152 14.1473L15.9978 17.633C15.2065 18.297 13.9932 17.8554 13.8138 16.8382L12.8722 11.4976C12.6928 10.4804 13.6819 9.6504 14.6525 10.0037L19.7484 11.8585Z" fill="black"/>
<path d="M24.2462 4.66747L22.9247 4.90047C22.6207 4.95409 22.4176 5.24407 22.4712 5.54816L22.7042 6.86961C22.7579 7.17369 23.0478 7.37674 23.3519 7.32312L24.6734 7.09011C24.9775 7.03649 25.1805 6.74652 25.1269 6.44243L24.8939 5.12098C24.8403 4.81689 24.5503 4.61385 24.2462 4.66747Z" fill="black"/>
<path d="M24.9647 8.74193L23.6433 8.97494C23.3392 9.02855 23.1361 9.31853 23.1897 9.62262L23.4227 10.9441C23.4764 11.2482 23.7663 11.4512 24.0704 11.3976L25.3919 11.1646C25.696 11.111 25.899 10.821 25.8454 10.5169L25.6124 9.19544C25.5588 8.89136 25.2688 8.68831 24.9647 8.74193Z" fill="black"/>
<path d="M25.6831 12.8164L24.3616 13.0494C24.0575 13.103 23.8545 13.393 23.9081 13.6971L24.1411 15.0185C24.1947 15.3226 24.4847 15.5257 24.7888 15.472L26.1103 15.239C26.4143 15.1854 26.6174 14.8954 26.5638 14.5914L26.3308 13.2699C26.2771 12.9658 25.9872 12.7628 25.6831 12.8164Z" fill="black"/>
<path d="M26.4015 16.8909L25.08 17.1239C24.7759 17.1775 24.5729 17.4675 24.6265 17.7715L24.8595 19.093C24.9131 19.3971 25.2031 19.6001 25.5072 19.5465L26.8286 19.3135C27.1327 19.2599 27.3358 18.9699 27.2822 18.6658L27.0492 17.3444C26.9955 17.0403 26.7056 16.8372 26.4015 16.8909Z" fill="black"/>
<path d="M23.8906 2.02316L5.44552 5.27554C3.28649 5.65623 1.84487 7.71508 2.22556 9.87411L4.49736 22.7581C4.87806 24.9171 6.93691 26.3588 9.09593 25.9781L27.541 22.7257C29.7001 22.345 31.1417 20.2861 30.761 18.1271L28.4892 5.24312C28.1085 3.08409 26.0497 1.64247 23.8906 2.02316Z" stroke="black" stroke-width="1.7891"/>
</g>
</svg>
